<svg xmlns="http://www.w3.org/2000/svg" width="209" height="61" fill="none"><path fill="#00B37E" d="m64.067.41-15.68 55.544a.358.358 0 0 1-.584.151l-10.497-9.959 7.866-27.835c.08-.252-.16-.479-.425-.403L15.41 25.371 4.965 15.463c-.186-.177-.106-.48.16-.555L63.641.008c.265-.051.505.176.425.403Z" opacity=".5"/><path fill="#00B37E" d="m37.306 46.146-4.04 14.371a.358.358 0 0 1-.584.151L.102 29.783c-.187-.177-.107-.48.159-.555l15.147-3.857 21.898 20.775Z" opacity=".5"/><path fill="#00B37E" d="m45.171 18.311-7.866 27.835L15.408 25.37l29.338-7.463c.266-.076.505.15.425.403Z"/><path fill="#29292E" d="M85.692 20.693v18.19h-3.736v-18.19h3.736Zm11.843 4.672h3.261v13.068c0 1.232-.275 2.277-.825 3.135-.541.866-1.3 1.52-2.274 1.962-.974.45-2.107.674-3.398.674a7.816 7.816 0 0 1-1.799-.225 7.196 7.196 0 0 1-1.799-.7 4.756 4.756 0 0 1-1.424-1.199l1.587-2.123c.416.483.9.858 1.449 1.124a4.02 4.02 0 0 0 1.824.412c.65 0 1.2-.12 1.649-.362.45-.233.795-.579 1.037-1.037.241-.45.362-.995.362-1.636v-9.97l.35-3.123Zm-9.095 6.921v-.262c0-1.033.125-1.97.375-2.811.258-.85.62-1.578 1.087-2.186a4.94 4.94 0 0 1 1.724-1.412c.674-.333 1.437-.5 2.286-.5.9 0 1.653.167 2.261.5a4.086 4.086 0 0 1 1.5 1.424c.39.608.695 1.328.911 2.161.225.825.4 1.729.525 2.711v.575a15.998 15.998 0 0 1-.562 2.623 8.057 8.057 0 0 1-.987 2.124 4.365 4.365 0 0 1-1.524 1.4c-.6.333-1.316.5-2.149.5s-1.587-.172-2.261-.513a5.05 5.05 0 0 1-1.712-1.437c-.474-.616-.84-1.34-1.099-2.173a9.444 9.444 0 0 1-.375-2.724Zm3.598-.262v.262c0 .558.054 1.079.163 1.562.108.483.274.912.5 1.286.233.367.52.654.861.862.35.2.762.3 1.237.3.658 0 1.195-.137 1.612-.412a2.59 2.59 0 0 0 .937-1.162c.208-.491.329-1.058.362-1.699v-1.636a5.52 5.52 0 0 0-.212-1.412 3.385 3.385 0 0 0-.525-1.087 2.266 2.266 0 0 0-.875-.7c-.358-.166-.783-.25-1.274-.25-.475 0-.887.109-1.237.325a2.662 2.662 0 0 0-.862.862c-.225.367-.395.8-.512 1.3a6.92 6.92 0 0 0-.175 1.599Zm15.079-3.773v10.631h-3.598V25.365h3.373l.225 2.886Zm-.525 3.398h-.974c0-1 .129-1.899.387-2.698.258-.808.621-1.495 1.087-2.062a4.662 4.662 0 0 1 1.662-1.312c.649-.308 1.374-.462 2.173-.462.633 0 1.212.092 1.737.275.525.183.974.475 1.349.875.383.4.675.928.875 1.586.208.658.312 1.462.312 2.411v8.62h-3.623V30.25c0-.6-.083-1.066-.25-1.4a1.4 1.4 0 0 0-.737-.7c-.316-.14-.708-.211-1.174-.211-.483 0-.904.095-1.262.287-.35.192-.641.458-.875.8a3.803 3.803 0 0 0-.512 1.174c-.116.45-.175.933-.175 1.449Zm15.142-6.284v13.517h-3.611V25.365h3.611Zm-3.836-3.523c0-.525.184-.958.55-1.3.366-.34.858-.511 1.474-.511.608 0 1.095.17 1.462.512.375.341.562.774.562 1.3 0 .524-.187.957-.562 1.298-.367.342-.854.513-1.462.513-.616 0-1.108-.171-1.474-.513-.366-.341-.55-.774-.55-1.299Zm13.43 3.523v2.549h-7.87v-2.549h7.87Zm-5.921-3.335h3.597v12.78c0 .391.05.69.15.9a.904.904 0 0 0 .475.436c.208.075.471.113.787.113.225 0 .425-.008.6-.025.183-.025.337-.05.462-.075l.013 2.648c-.309.1-.642.18-1 .238a7.415 7.415 0 0 1-1.187.087c-.791 0-1.482-.129-2.074-.387a2.858 2.858 0 0 1-1.349-1.274c-.316-.583-.474-1.35-.474-2.3V22.03Zm14.191 17.102c-1.049 0-1.99-.166-2.823-.5a6.197 6.197 0 0 1-2.124-1.411 6.28 6.28 0 0 1-1.324-2.087 7.027 7.027 0 0 1-.462-2.548v-.5c0-1.024.145-1.961.437-2.81a6.607 6.607 0 0 1 1.249-2.212 5.489 5.489 0 0 1 1.999-1.437c.783-.341 1.666-.512 2.649-.512.957 0 1.807.158 2.548.475a5 5 0 0 1 1.862 1.35c.508.582.891 1.282 1.149 2.098.258.808.387 1.707.387 2.698v1.5h-10.744v-2.4h7.209v-.274c0-.5-.092-.945-.275-1.337a2.124 2.124 0 0 0-.8-.95c-.358-.232-.816-.349-1.374-.349-.475 0-.883.104-1.224.312-.342.209-.621.5-.837.875a4.758 4.758 0 0 0-.475 1.324c-.1.5-.15 1.05-.15 1.65v.499c0 .541.075 1.041.225 1.499.158.458.379.854.662 1.187a3.02 3.02 0 0 0 1.05.774c.416.184.887.275 1.411.275.65 0 1.254-.125 1.812-.374a3.922 3.922 0 0 0 1.461-1.162l1.749 1.899c-.283.408-.67.8-1.161 1.174-.484.375-1.067.683-1.749.924-.683.234-1.462.35-2.337.35Zm17.94-18.44v18.19h-3.748v-18.19h3.748Zm7.246 7.771v2.924h-8.27v-2.924h8.27Zm.874-7.77v2.935h-9.144v-2.935h9.144Zm7.896 18.44c-1.049 0-1.991-.167-2.823-.5a6.197 6.197 0 0 1-2.124-1.412 6.263 6.263 0 0 1-1.324-2.087 7.007 7.007 0 0 1-.463-2.548v-.5c0-1.024.146-1.961.438-2.81a6.59 6.59 0 0 1 1.249-2.212 5.48 5.48 0 0 1 1.999-1.437c.783-.341 1.665-.512 2.648-.512.958 0 1.807.158 2.549.475a4.997 4.997 0 0 1 1.861 1.35c.508.582.891 1.282 1.149 2.098.259.808.388 1.707.388 2.698v1.5h-10.744v-2.4h7.208v-.274c0-.5-.091-.945-.275-1.337a2.116 2.116 0 0 0-.799-.95c-.358-.232-.816-.349-1.374-.349-.475 0-.883.104-1.225.312-.341.209-.62.5-.837.875a4.757 4.757 0 0 0-.474 1.324c-.1.5-.15 1.05-.15 1.65v.499c0 .541.075 1.041.225 1.499.158.458.379.854.662 1.187.291.333.641.591 1.049.774.417.184.887.275 1.412.275.649 0 1.253-.125 1.811-.374a3.917 3.917 0 0 0 1.462-1.162l1.749 1.899c-.283.408-.671.8-1.162 1.174-.483.375-1.066.683-1.749.924-.683.234-1.462.35-2.336.35Zm13.817 0c-1.049 0-1.991-.167-2.823-.5a6.197 6.197 0 0 1-2.124-1.412 6.263 6.263 0 0 1-1.324-2.087 7.007 7.007 0 0 1-.463-2.548v-.5c0-1.024.146-1.961.438-2.81a6.607 6.607 0 0 1 1.249-2.212 5.489 5.489 0 0 1 1.999-1.437c.783-.341 1.665-.512 2.648-.512.958 0 1.808.158 2.549.475a4.997 4.997 0 0 1 1.861 1.35c.508.582.891 1.282 1.15 2.098.258.808.387 1.707.387 2.698v1.5h-10.744v-2.4h7.208v-.274c0-.5-.091-.945-.275-1.337a2.116 2.116 0 0 0-.799-.95c-.358-.232-.816-.349-1.374-.349-.475 0-.883.104-1.225.312-.341.209-.62.5-.837.875a4.757 4.757 0 0 0-.474 1.324c-.1.5-.15 1.05-.15 1.65v.499c0 .541.075 1.041.225 1.499.158.458.379.854.662 1.187.291.333.641.591 1.049.774.417.184.887.275 1.412.275.649 0 1.253-.125 1.811-.374a3.917 3.917 0 0 0 1.462-1.162l1.749 1.899c-.283.408-.67.8-1.162 1.174-.483.375-1.066.683-1.749.924-.683.234-1.462.35-2.336.35Zm15.579-3.199v-16.24h3.622v19.188h-3.26l-.362-2.948Zm-8.546-3.648v-.262c0-1.033.117-1.97.35-2.811.233-.85.575-1.578 1.025-2.186a4.658 4.658 0 0 1 1.661-1.412c.658-.333 1.408-.5 2.249-.5.791 0 1.482.167 2.074.5a4.44 4.44 0 0 1 1.524 1.424c.425.608.766 1.328 1.024 2.161.258.825.446 1.729.562 2.711v.575a14.41 14.41 0 0 1-.562 2.623 7.845 7.845 0 0 1-1.024 2.124 4.525 4.525 0 0 1-1.524 1.4c-.6.333-1.3.5-2.099.5-.841 0-1.591-.172-2.249-.513a4.78 4.78 0 0 1-1.649-1.437c-.441-.616-.779-1.34-1.012-2.173a10.08 10.08 0 0 1-.35-2.724Zm3.598-.262v.262c0 .558.042 1.079.125 1.562.092.483.238.912.438 1.286.208.367.474.654.799.862.333.2.737.3 1.212.3.616 0 1.124-.137 1.524-.412.4-.283.704-.67.912-1.162.217-.491.341-1.058.375-1.699v-1.636a5.89 5.89 0 0 0-.225-1.412 3.084 3.084 0 0 0-.525-1.087 2.318 2.318 0 0 0-.849-.7c-.333-.166-.729-.25-1.187-.25-.467 0-.866.109-1.199.325a2.371 2.371 0 0 0-.812.862c-.2.367-.35.8-.45 1.3a8.698 8.698 0 0 0-.138 1.599Z"/></svg>